<?xml version="1.0" standalone="no"?>
<svg viewBox="0 0 200 200" xmlns="http://www.w3.org/2000/svg">
  <path fill="#F0C9C9" d="M37.6,-67.7C47.7,-59.2,54.2,-47.1,56,-35.3C57.8,-23.4,54.9,-11.7,56.7,1.1C58.6,13.9,65.3,27.7,63.1,38.9C61,50.1,49.9,58.7,37.9,61.1C25.9,63.6,12.9,60.1,0.4,59.3C-12.1,58.5,-24.1,60.6,-37.6,58.9C-51,57.3,-65.9,52,-74.1,41.5C-82.2,31.1,-83.7,15.5,-84.5,-0.5C-85.3,-16.5,-85.5,-33,-78.6,-45.6C-71.7,-58.3,-57.8,-67.1,-43.5,-73.3C-29.3,-79.5,-14.6,-82.9,-0.5,-82.1C13.7,-81.3,27.4,-76.3,37.6,-67.7Z" transform="translate(100 100)" />
</svg>
